<?xml version="1.0" encoding="utf-8"?>
<!-- Generator: Adobe Illustrator 25.4.1, SVG Export Plug-In . SVG Version: 6.00 Build 0)  -->
<svg version="1.1" id="Layer_1" xmlns="http://www.w3.org/2000/svg" xmlns:xlink="http://www.w3.org/1999/xlink" x="0px" y="0px"
	 viewBox="0 0 1589 1031" style="enable-background:new 0 0 1589 1031;" xml:space="preserve">
<style type="text/css">
	.st0{fill:url(#SVGID_1_);}
	.st1{fill:url(#SVGID_00000118381848541575460950000018129613573861175726_);}
	.st2{fill:url(#SVGID_00000044863913980116754650000003555026147292813730_);}
	.st3{fill:url(#SVGID_00000073709911262952131430000005920244816125236638_);}
	.st4{fill:url(#SVGID_00000172436839656477281840000002767395759448038311_);}
	.st5{fill:url(#SVGID_00000006670556821734285760000001668461922282074799_);}
	.st6{fill:url(#SVGID_00000056404757137819519490000013808748381673254564_);}
	.st7{fill:url(#SVGID_00000178916455598553037480000014341666342922824327_);}
	.st8{fill:url(#SVGID_00000011002223749719268800000006323272248408547765_);}
	.st9{fill:url(#SVGID_00000127736335565502431480000006679574641621045676_);}
	.st10{fill:url(#SVGID_00000031206973197410575480000004100540764996261510_);}
	.st11{fill:url(#SVGID_00000140011658183380538970000017707330352698104982_);}
	.st12{fill:url(#SVGID_00000183243168198765220710000010122268894687197570_);}
	.st13{fill:url(#SVGID_00000006694026966731270150000001342093959637814959_);}
	.st14{fill:url(#SVGID_00000021095222650757449070000015854222910833734806_);}
	.st15{fill:url(#SVGID_00000111898469136854880990000013817751109978459822_);}
	.st16{fill:url(#SVGID_00000180333325517063132430000018443296126081384108_);}
	.st17{fill:url(#SVGID_00000111872173761836333870000002790536211738026939_);}
	.st18{fill:url(#SVGID_00000132082793424066932810000015399164219343087498_);}
	.st19{fill:url(#SVGID_00000165918041691875169460000000923845491149174940_);}
	.st20{fill:url(#SVGID_00000105386741918152593530000009948161991754201230_);}
	.st21{fill:url(#SVGID_00000047043443637867698640000008232745549615301279_);}
	.st22{fill:url(#SVGID_00000055674369221152050050000001085578177789598139_);}
	.st23{fill:url(#SVGID_00000057119721569402520240000017074116173035350948_);}
	.st24{fill:url(#SVGID_00000157295180922121323080000006711762356450023830_);}
	.st25{fill:url(#SVGID_00000026153479944085515460000015512745672324014522_);}
	.st26{fill:url(#SVGID_00000034054979229961627900000016109761293275454122_);}
	.st27{fill:url(#SVGID_00000123416808039500500920000017244981335274943423_);}
	.st28{fill:url(#SVGID_00000107570161351422506630000000451052104739643791_);}
	.st29{fill:url(#SVGID_00000018227783571799232280000003806994728086803073_);}
	.st30{fill:url(#SVGID_00000068663576203313048730000008445781059730099330_);}
	.st31{fill:url(#SVGID_00000149347294219114155930000006832962306702279298_);}
	.st32{fill:url(#SVGID_00000165921160932013276030000017138439672356803715_);}
	.st33{fill:url(#SVGID_00000156589090821400579490000015143101640946032293_);}
	.st34{fill:url(#SVGID_00000037671165845005574540000003927206660561911738_);}
	.st35{fill:url(#SVGID_00000016767915426461559570000008582133128167396229_);}
</style>
<g>
	<linearGradient id="SVGID_1_" gradientUnits="userSpaceOnUse" x1="1122.8505" y1="-259.8044" x2="471.5002" y2="918.2915">
		<stop  offset="0" style="stop-color:#FDE800"/>
		<stop  offset="1" style="stop-color:#CA5727"/>
	</linearGradient>
	<path class="st0" d="M1033.5,13.1c-89,35.7-170.1,97.1-241,182.4c-24.1,29-54.7,72.5-75.4,107.3L706.8,320l0.4,13.8
		c0.3,13.4,0.4,14,3.3,18.7c1.7,2.7,3.5,5,4,5.1c0.6,0.2,3.8-4.9,7.2-11.4c20.5-38.4,54.3-89.5,82.7-124.7
		c25.6-32,60.6-68.4,88.1-91.9c46.9-40.2,98.1-71.7,150-92.5l15-6l0.3-6.3c0.2-5.3-0.2-7.2-2.5-11.8c-1.8-3.6-3.5-5.6-4.8-5.7
		C1049.4,7.1,1041.8,9.7,1033.5,13.1z"/>
	
		<linearGradient id="SVGID_00000040534944378652448560000010750580907050839183_" gradientUnits="userSpaceOnUse" x1="1058.3416" y1="-300.2881" x2="407.9091" y2="876.1478">
		<stop  offset="0" style="stop-color:#FDE800"/>
		<stop  offset="1" style="stop-color:#CA5727"/>
	</linearGradient>
	<path style="fill:url(#SVGID_00000040534944378652448560000010750580907050839183_);" d="M939.4,18.6
		c-19.9,10.3-30.6,12.7-47.8,10.5l-8.9-1.1l-9.1,7c-21.9,16.7-54.5,45.5-65.4,57.8l-6,6.7l-0.3,8.2c-0.3,6.3-0.9,8.8-2.5,11
		c-3.4,4.5-7.9,6.5-15.6,7.1l-7,0.5l-11.7,13.6c-23.1,27-54.9,68.1-57.7,74.7c-3.5,8.3-2.2,22.3,3,32.3l2.3,4.4l8.8-12.9
		c30.6-44.9,67.9-89.8,108-130c36.7-36.9,68.8-62.3,110.9-88.1c6.6-4,11.5-7.3,11-7.3C950.8,13,945.4,15.5,939.4,18.6z"/>
	
		<linearGradient id="SVGID_00000183942699852814639770000015518270445462660513_" gradientUnits="userSpaceOnUse" x1="1309.7495" y1="-121.4917" x2="715.0848" y2="954.0771">
		<stop  offset="0" style="stop-color:#FDE800"/>
		<stop  offset="1" style="stop-color:#CA5727"/>
	</linearGradient>
	<path style="fill:url(#SVGID_00000183942699852814639770000015518270445462660513_);" d="M1199.5,63.5c-2.8,1.2-2.2,1.3,7.5,1.3
		c9.7,0,10.3-0.1,7.5-1.3c-1.6-0.8-5-1.4-7.5-1.4S1201.2,62.7,1199.5,63.5z"/>
	
		<linearGradient id="SVGID_00000179647327359797706970000016206359603020313498_" gradientUnits="userSpaceOnUse" x1="1177.5637" y1="-219.5695" x2="534.3109" y2="943.8807">
		<stop  offset="0" style="stop-color:#FDE800"/>
		<stop  offset="1" style="stop-color:#CA5727"/>
	</linearGradient>
	<path style="fill:url(#SVGID_00000179647327359797706970000016206359603020313498_);" d="M1056.1,68.1
		c-79.5,30-152.2,84.3-218.2,162.9c-6.6,8-12.8,16.1-13.6,18c-2.9,6.7,0.9,14.6,8.2,17c5.4,1.8,10.1-0.5,16.3-8
		c36.4-43.4,63.2-70.4,96.7-97.1c44.6-35.7,94.9-62.3,147.8-78.4l13.8-4.2l-4.9-4.5c-7.8-7.3-10-8.1-24.1-8.7l-12.4-0.6L1056.1,68.1
		z"/>
	
		<linearGradient id="SVGID_00000135691395205855646660000012473625681257691275_" gradientUnits="userSpaceOnUse" x1="1311.5016" y1="-122.02" x2="688.1191" y2="1005.4905">
		<stop  offset="0" style="stop-color:#FDE800"/>
		<stop  offset="1" style="stop-color:#CA5727"/>
	</linearGradient>
	<path style="fill:url(#SVGID_00000135691395205855646660000012473625681257691275_);" d="M1183,101.6c-1.9,0.2-8.4,0.9-14.5,1.4
		c-42,4-89.4,17.8-130.8,38c-32.5,15.8-62.3,35.5-91.9,60.8c-13.2,11.3-45.8,43.8-49.5,49.3c-4.9,7.4-2.8,15.3,5,19.2
		c7.1,3.6,8.7,2.6,30.5-19.5c27.9-28.3,48.2-45.4,74.2-62.3c48.2-31.4,97.5-50.3,153-58.7c17-2.5,58.2-3.6,75.4-1.9
		c41.6,4.1,82.5,16.6,115.6,35.5c5.2,3,9.6,5.3,9.8,5.2c0.1-0.2-3.1-6.6-7.2-14.4c-4.1-7.8-8.5-16.6-9.9-19.5l-2.4-5.3l-12.9-5.1
		c-27.4-10.9-50.9-17-80.5-20.9C1236.1,102,1190.7,100.7,1183,101.6z"/>
	
		<linearGradient id="SVGID_00000114067803212970099810000006633208812357021629_" gradientUnits="userSpaceOnUse" x1="1490.5404" y1="-48.0585" x2="802.4373" y2="1196.5122">
		<stop  offset="0" style="stop-color:#FDE800"/>
		<stop  offset="1" style="stop-color:#CA5727"/>
	</linearGradient>
	<path style="fill:url(#SVGID_00000114067803212970099810000006633208812357021629_);" d="M1175.5,160c-93,7.8-185.5,63.6-263.6,159
		c-34.3,41.9-61.8,85.6-89.1,141.4l-3.9,7.9l5.8-0.6c3.2-0.4,9.6-2,14.3-3.7c4.7-1.6,9.3-3,10.2-3c1.2,0,3.1-2.7,5.9-8.2
		c10.4-20.7,28.1-50.4,43.3-72.8c51.4-75.6,112.2-132.1,177.6-164.9c28.3-14.1,56.6-23.3,85.5-27.7c17-2.6,55.3-2.6,71.5-0.1
		c55.8,8.9,104.4,35.1,142.8,77.1c37.3,40.7,60.6,92.1,69.9,154.1c2.8,18.8,2.5,64.9-0.5,84.4c-4.2,26.4-12.1,53.4-22.6,77.1
		c-8.7,19.6-19.3,36.8-47.1,77c-20.5,29.7-29.3,44-38.5,62.5c-12.4,25.1-19.8,50.5-22.9,78.7c-1.6,14.1-1.3,50.1,0.4,67.9
		c1.7,17.3,3,26.2,7.7,52.8l3.2,18.3l7.3-7.8c4-4.4,8.9-9.8,10.8-12l3.5-4.1l-2.5-15.4c-4.6-28.9-5.9-43.2-5.9-67.9
		c-0.1-57.4,10.9-89.5,50.3-147c6.6-9.6,17.7-26,24.7-36.4l12.8-18.9l1.2-10.2c1.2-11.3,4.1-18.8,9.3-24.3c1.7-1.8,3.1-4.4,3.1-5.7
		c0-9.9,5.1-20.8,14.9-31.7l6.9-7.6l3-12.9c6.7-28.6,8.6-45.4,8.6-76.8c0-18.9-0.5-29.5-1.8-39c-4.5-33.9-12.1-62-24.6-91.1
		c-4.2-9.9-5.9-12.5-10-16.3c-4.2-3.8-6.8-8.1-15.8-25.7c-12.2-23.8-16.7-29.9-35.2-48.5c-36.1-36.2-80.9-61.1-130.2-72.3
		C1233.9,160.6,1198.4,158.1,1175.5,160z"/>
	
		<linearGradient id="SVGID_00000154399550404468897810000012012202257113028506_" gradientUnits="userSpaceOnUse" x1="1397.564" y1="-53.2069" x2="792.0676" y2="1041.9532">
		<stop  offset="0" style="stop-color:#FDE800"/>
		<stop  offset="1" style="stop-color:#CA5727"/>
	</linearGradient>
	<path style="fill:url(#SVGID_00000154399550404468897810000012012202257113028506_);" d="M1160.6,223.6
		c-30.3,3.9-62.1,14.3-89.4,29.2c-14.6,7.9-17.9,12.5-15.1,20.6c1.7,4.9,6.7,8.6,11.7,8.6c2.4,0,6.6-1.7,13.1-5.3
		c55.5-31,119.5-37.8,177.2-19c14.5,4.7,37.6,16.3,49.9,25c5.2,3.8,15.3,12.6,22.5,19.7c7.1,7,14.5,13.5,16.3,14.2
		c6.5,2.8,15-2,16.7-9.5c1.1-5.2-2.4-10.8-14.1-22.5c-33.9-33.8-76.9-54.5-126.7-61.1C1208,221.6,1175.8,221.7,1160.6,223.6z"/>
	
		<linearGradient id="SVGID_00000071529702932596851100000007889331609517995187_" gradientUnits="userSpaceOnUse" x1="1520.744" y1="-34.8279" x2="835.8015" y2="1204.0261">
		<stop  offset="0" style="stop-color:#FDE800"/>
		<stop  offset="1" style="stop-color:#CA5727"/>
	</linearGradient>
	<path style="fill:url(#SVGID_00000071529702932596851100000007889331609517995187_);" d="M1168.8,280.1
		c-11.9,1.4-29.5,6.3-41.4,11.3c-28.8,12.2-68,41.2-103.5,76.6c-23.8,23.8-38.8,41.5-58.3,69.2l-4.8,6.8h4.7c5.8,0,9.4,2.1,13.6,7.7
		c1.8,2.4,3.6,4.3,4,4.3c0.5,0,2.3-2.1,4-4.8c31.8-46.5,76.7-90.6,124.8-122.4c43.7-28.9,91.8-31.7,137.1-8.2
		c14.1,7.3,26.1,16.4,39,29.4c13.4,13.5,22.2,25.9,30.9,43.5c11.9,24,16.9,43.3,17.8,69.5c0.4,12.6,0.2,19.2-1.1,28
		c-5.2,36-15.7,55.2-55.1,101c-22.1,25.6-27.3,32.2-36.6,46.3c-47.4,71.5-60.7,163.6-40.9,283.7c5.1,30.5,15.2,76.9,17.7,80.8
		c2,3.2,7.2,6.2,10.9,6.2c3.7,0,9.4-3.6,11.1-7c1.9-3.8,1.6-6.9-2.1-22.9c-10-42.7-16.9-84.7-19.6-120c-1.3-17.3-1.3-56.1,0.1-71.6
		c4.5-52.8,19.2-97.5,44.4-135.6c7.5-11.3,14.7-20.4,35-43.9c32.8-38.1,44.9-56.9,53.5-82.9c14.8-44.5,10.6-97-11.4-141.6
		c-26.1-53.3-72.5-90.5-126.6-101.5C1203.9,279.5,1180.8,278.6,1168.8,280.1z"/>
	
		<linearGradient id="SVGID_00000149341905288779852670000008978604339962046126_" gradientUnits="userSpaceOnUse" x1="1422.5472" y1="-49.0577" x2="790.124" y2="1094.8049">
		<stop  offset="0" style="stop-color:#FDE800"/>
		<stop  offset="1" style="stop-color:#CA5727"/>
	</linearGradient>
	<path style="fill:url(#SVGID_00000149341905288779852670000008978604339962046126_);" d="M1170.5,342.1
		c-21.7,2.3-49.8,15.2-75.9,34.9c-19.4,14.5-39.2,34.6-56.9,57.3c-9.9,12.8-22.7,30.7-22.7,31.9c0,0.5,2.7,0.8,6,0.8
		c6.8,0,11,1.4,15.6,5.3l3,2.6l6.7-9.4c17.5-24.6,43.9-53.1,61.2-66.2c18.9-14.2,39.4-25.5,52.5-29c10-2.6,27.9-2.2,40.1,1
		c26,6.8,48.5,21.8,62.5,41.8c4.2,6,6.3,8.1,9.5,9.3c8.5,3.4,16.9-2.2,16.9-11.4c0-3.9-0.7-5.8-3.9-10.6
		c-13.1-19.5-33.3-36.4-57.4-47.9c-12.8-6.2-22.4-9-35.2-10.5C1182.5,340.9,1181.9,340.9,1170.5,342.1z"/>
	
		<linearGradient id="SVGID_00000169516665419164933580000005219133175836027831_" gradientUnits="userSpaceOnUse" x1="1258.1331" y1="-175.1487" x2="602.5821" y2="1010.5449">
		<stop  offset="0" style="stop-color:#FDE800"/>
		<stop  offset="1" style="stop-color:#CA5727"/>
	</linearGradient>
	<path style="fill:url(#SVGID_00000169516665419164933580000005219133175836027831_);" d="M964.4,346.4c-6,2.6-44.8,57.7-68.2,96.7
		c-4.5,7.6-8.2,14-8.2,14.3s4,0.6,9,0.6h8.9l5.3-4.6c2.8-2.6,7.1-5.5,9.5-6.6c3.5-1.5,5.2-3.4,9.5-10.1c10-15.8,24.2-36.3,36.2-52.5
		c12.8-17.2,16.6-23.3,16.6-26.7c0-3.5-3.5-8.8-7.1-10.7C971.9,344.7,968.7,344.6,964.4,346.4z"/>
	
		<linearGradient id="SVGID_00000157284386438388932020000016118668681798169021_" gradientUnits="userSpaceOnUse" x1="1166.8438" y1="-248.6383" x2="498.7193" y2="959.7969">
		<stop  offset="0" style="stop-color:#FDE800"/>
		<stop  offset="1" style="stop-color:#CA5727"/>
	</linearGradient>
	<path style="fill:url(#SVGID_00000157284386438388932020000016118668681798169021_);" d="M822.5,353c-1.1,0.4-3,1.8-4.2,3.1
		c-3.3,3.7-20.3,33.9-32.9,58.3l-11.2,22l8.5,9.5c4.7,5.3,8.9,10,9.3,10.4c0.4,0.4,5.5-8.8,11.3-20.5c10.6-21.3,21.7-41.7,31.5-57.9
		c5.6-9.3,6.6-14.7,3.8-19.7C835.8,353.1,828.2,350.6,822.5,353z"/>
	
		<linearGradient id="SVGID_00000150100870566059387240000013823780793436109962_" gradientUnits="userSpaceOnUse" x1="1121.6405" y1="-284.3781" x2="448.6643" y2="932.8326">
		<stop  offset="0" style="stop-color:#FDE800"/>
		<stop  offset="1" style="stop-color:#CA5727"/>
	</linearGradient>
	<path style="fill:url(#SVGID_00000150100870566059387240000013823780793436109962_);" d="M756.4,354.4c-4.3,1.9-6.8,5.6-16.3,23.9
		l-8.2,15.8l2,2.7c1.1,1.5,5.3,6,9.4,10.1l7.5,7.3l11.1-21.8c6.2-12.1,11.5-23.3,11.8-25c0.6-3.8-1.9-9.7-5.1-11.8
		C765.1,353.4,759.9,352.8,756.4,354.4z"/>
	
		<linearGradient id="SVGID_00000181803390303979364550000010202605106827009410_" gradientUnits="userSpaceOnUse" x1="1723.7207" y1="108.1264" x2="1045.4407" y2="1334.9302">
		<stop  offset="0" style="stop-color:#FDE800"/>
		<stop  offset="1" style="stop-color:#CA5727"/>
	</linearGradient>
	<path style="fill:url(#SVGID_00000181803390303979364550000010202605106827009410_);" d="M1559.7,368.7c-1.1,0.3-1.6,1.1-1.3,2.1
		c1.2,3.7,4.7,31.6,5.9,45.7l1.2,15l8.9-15.9c5-8.8,9.6-18.2,10.3-21c4-14.6-4.5-26.8-18.3-26.5
		C1563.7,368.2,1560.7,368.4,1559.7,368.7z"/>
	
		<linearGradient id="SVGID_00000144298812212329921300000005070868336749590452_" gradientUnits="userSpaceOnUse" x1="1706.8552" y1="96.4906" x2="1030.7338" y2="1319.3901">
		<stop  offset="0" style="stop-color:#FDE800"/>
		<stop  offset="1" style="stop-color:#CA5727"/>
	</linearGradient>
	<path style="fill:url(#SVGID_00000144298812212329921300000005070868336749590452_);" d="M1516.6,389.8l-12.8,0.3l0.6,2.5
		c3.7,14.5,5.6,52.2,3.7,73.4c-1.1,13-4.5,37.6-5.7,41.3c-0.3,1.1,1.9-0.1,6.1-3.3c3.7-2.8,9.8-6.6,13.6-8.5
		c4.4-2.3,7.4-4.5,8.3-6.2c3.1-6.1,5.2-42.5,3.6-64.8c-0.9-13.4-3.5-34.8-4.3-35C1529.6,389.5,1523.7,389.6,1516.6,389.8z"/>
	
		<linearGradient id="SVGID_00000080183555529412430500000005502363546397049790_" gradientUnits="userSpaceOnUse" x1="1486.22" y1="-50.6287" x2="810.1026" y2="1172.2635">
		<stop  offset="0" style="stop-color:#FDE800"/>
		<stop  offset="1" style="stop-color:#CA5727"/>
	</linearGradient>
	<path style="fill:url(#SVGID_00000080183555529412430500000005502363546397049790_);" d="M1168.6,404.1
		c-19.3,3.2-37.9,14.8-61.1,38.3c-20,20.1-37.5,42.5-54.9,70.4l-7.8,12.4l0.4,17.1c0.3,15.9,0.5,17.6,2.7,21.7
		c1.9,3.5,2.6,4.2,3.3,3c0.5-0.8,4.3-7.8,8.5-15.5c19.4-35.8,42-67,66.3-91.5c17.6-17.8,27.2-24.7,40-29c18-6.1,37.2,2.4,45.9,20.2
		c5.9,12,6.4,24.2,1.5,38.8c-3.7,10.8-6.9,15.9-23,36.3c-42.1,53.2-67.9,96.4-85.2,142.7c-4.9,13.1-5,13.7-4.5,21.5
		c0.9,13.8-2.9,28.8-10.6,41.6c-3.4,5.6-4,7.8-5.5,17.9c-4.2,30.8-4.7,42.4-1.7,49.8c2.9,7.2,8.2,15.4,14.1,21.6
		c2.7,2.9,5.4,6.4,5.9,8c0.6,1.5,1.2,8.7,1.2,15.9c0.1,7.3,0.4,14.5,0.8,16.1c0.3,1.7,0.6-13.2,0.6-33c0.1-26.8,0.5-40.3,1.8-53.1
		c8.8-86.7,36.9-149.5,105.7-236.3c16.7-21.1,20.5-27.6,25.5-43c2.2-6.9,2.8-11,3.2-21.5c0.6-15.4-0.6-21.7-6.8-34.5
		c-5.8-11.9-17.9-23.9-29.9-29.9C1192.9,404.1,1180.5,402.1,1168.6,404.1z"/>
	
		<linearGradient id="SVGID_00000022547984181194729970000013092398674446667392_" gradientUnits="userSpaceOnUse" x1="1683.9146" y1="74.4441" x2="1007.6146" y2="1297.6666">
		<stop  offset="0" style="stop-color:#FDE800"/>
		<stop  offset="1" style="stop-color:#CA5727"/>
	</linearGradient>
	<path style="fill:url(#SVGID_00000022547984181194729970000013092398674446667392_);" d="M1393.7,409l-4,4.1l0.6,6.7
		c0.4,3.7,1.2,10.1,1.8,14.2c1.5,10.3,1.5,42.4,0,54.2c-4.3,34.2-15.1,64.6-33.3,93.7c-6,9.8-19.9,28.7-46.9,64.1
		c-37.6,49.1-53.1,83.1-60.5,132.2c-2.1,14.3-3,52.3-1.5,70c1.6,19.1,5.3,44.4,9.7,66.3c5,25.2,13,58.9,14.8,62.3
		c1.4,2.8,7.7,6.7,9.6,6c1.8-0.6,13.8-15.1,13.5-16.2c-0.3-0.6-2.4-9.9-4.9-20.6c-13.6-59.2-18-89.9-17.9-127
		c0-49.7,10-86,34.3-124.8c5.9-9.4,16.3-23.6,47.6-64.7c37.1-48.8,52-81.5,60.1-132c2.4-15.2,2.5-58.3,0-73.2
		c-0.9-5.7-2.3-11.6-3.2-13.3c-1.9-3.8-6.2-6-11.6-6C1398.4,405,1397.2,405.6,1393.7,409z"/>
	
		<linearGradient id="SVGID_00000051357593238649571670000007459950129211179956_" gradientUnits="userSpaceOnUse" x1="1456.8682" y1="-54.0746" x2="794.5638" y2="1143.834">
		<stop  offset="0" style="stop-color:#FDE800"/>
		<stop  offset="1" style="stop-color:#CA5727"/>
	</linearGradient>
	<path style="fill:url(#SVGID_00000051357593238649571670000007459950129211179956_);" d="M1170.2,465.1c-3.9,1.5-11.9,8.8-24,21.9
		c-27.1,29.2-49.1,60.8-65.6,93.9c-6.2,12.5-6.3,12.6-4.8,16.1c0.8,1.9,1.4,6.4,1.4,10c0,4.9,0.5,7.2,2.1,9.4c1.1,1.5,3.2,5,4.7,7.7
		l2.6,4.8l3.9-9.2c18.5-44.3,45.6-85.2,79.1-119.7c8.3-8.5,15.6-16.5,16.3-17.7C1190.8,472.8,1180.2,461,1170.2,465.1z"/>
	
		<linearGradient id="SVGID_00000105428182794324310290000018417795853263122083_" gradientUnits="userSpaceOnUse" x1="1549.9237" y1="8.3434" x2="890.2914" y2="1201.4189">
		<stop  offset="0" style="stop-color:#FDE800"/>
		<stop  offset="1" style="stop-color:#CA5727"/>
	</linearGradient>
	<path style="fill:url(#SVGID_00000105428182794324310290000018417795853263122083_);" d="M1258.4,524.4c-2.1,0.9-4.4,3.5-6.9,7.7
		c-6.5,10.8-15.1,23.4-33.4,48.9c-22.8,31.8-31.1,45.2-31.1,49.9c0,10.1,11.6,16.3,19.8,10.5c1.2-0.8,5.6-6.8,9.8-13.2
		c4.2-6.4,15.6-22.7,25.2-36.2c24.7-34.3,35.2-51.2,35.2-56.2c0-3.7-3.4-9-7.1-11C1265.9,522.7,1262.7,522.6,1258.4,524.4z"/>
	
		<linearGradient id="SVGID_00000065784029362091334800000015494433948798571932_" gradientUnits="userSpaceOnUse" x1="1758.7386" y1="135.4823" x2="1092.3467" y2="1340.7841">
		<stop  offset="0" style="stop-color:#FDE800"/>
		<stop  offset="1" style="stop-color:#CA5727"/>
	</linearGradient>
	<path style="fill:url(#SVGID_00000065784029362091334800000015494433948798571932_);" d="M1440.1,713.5
		c-38.2,18.3-67.2,56.5-77.2,101.4c-3.2,14.5-4.4,33.1-3.1,47.3c1.4,15.1,4.1,29,5.6,28.5c0.6-0.2,2.2-3,3.5-6.3
		c2.7-6.4,2.7-6.3,2-39.9c-0.3-13.4-0.2-14.4,2.7-22.6c3.9-11,10.6-21,19.8-29.6c4.1-3.8,9.8-10.7,13.1-15.8
		c10.6-16.1,26.3-30.6,41.9-38.5l6.7-3.5l-0.6-4.5c-0.7-5.4-4.1-16.1-5.8-18.4C1447.6,710.1,1446.8,710.3,1440.1,713.5z"/>
	
		<linearGradient id="SVGID_00000115512673340111382490000016187637048773939892_" gradientUnits="userSpaceOnUse" x1="1644.7662" y1="18.8694" x2="954.4318" y2="1267.476">
		<stop  offset="0" style="stop-color:#FDE800"/>
		<stop  offset="1" style="stop-color:#CA5727"/>
	</linearGradient>
	<path style="fill:url(#SVGID_00000115512673340111382490000016187637048773939892_);" d="M1147.9,743.5c-4.9,2.6-6.6,9.5-10.6,40.5
		c-2.5,19.7-2.5,87.1,0,108.5c4.2,36,9.3,63.3,18.2,98c7.2,28.4,9.4,34.7,12.5,36.2c1.4,0.7,5.5,1.3,9.2,1.3c6.2,0,6.8-0.2,8.7-2.8
		c3.7-5.2,3.5-7.1-1.8-26.4c-16.7-60.6-23.6-107.9-23.6-161.8c0.1-28.9,1-43,4.6-66.4c2.8-18.7,2.6-21.1-1.5-25.2
		c-3-3-4-3.4-8.2-3.4C1152.7,742.1,1149.3,742.7,1147.9,743.5z"/>
	
		<linearGradient id="SVGID_00000018924930618077582060000003672742379618757558_" gradientUnits="userSpaceOnUse" x1="1768.0676" y1="165.6748" x2="1121.5635" y2="1335.0056">
		<stop  offset="0" style="stop-color:#FDE800"/>
		<stop  offset="1" style="stop-color:#CA5727"/>
	</linearGradient>
	<path style="fill:url(#SVGID_00000018924930618077582060000003672742379618757558_);" d="M1442.8,758.3
		c-6.4,4.4-15.6,12.4-16.9,14.8c-1,2-1,2,2.9,0c6.1-3.1,20.4-16.3,19.1-17.5C1447.7,755.3,1445.4,756.6,1442.8,758.3z"/>
</g>
<g>
	
		<linearGradient id="SVGID_00000085208274165444015490000000302214568398541992_" gradientUnits="userSpaceOnUse" x1="704.457" y1="-45.8029" x2="-204.29" y2="1597.8459">
		<stop  offset="0" style="stop-color:#CA5727"/>
		<stop  offset="1" style="stop-color:#FDE800"/>
	</linearGradient>
	<path style="fill:url(#SVGID_00000085208274165444015490000000302214568398541992_);" d="M320,513.5c-1.8,1.9-3.3,2.5-6.7,2.5H309
		v85.5V687h8h8v-20.3l0.1-20.2l6-6.4c5.1-5.5,6.2-6.2,7.3-5c0.7,0.8,8.8,13.4,18,28.1c9.3,14.8,17.2,27,17.6,27.3
		c1.4,0.9,13.1-6.8,12.6-8.2c-0.3-0.7-8.9-14.5-19.1-30.7c-10.2-16.3-18.5-30-18.5-30.5s7.9-10,17.5-21l17.5-20l-30.2-34.3
		c-16.5-18.9-30.4-34.4-30.7-34.6C322.7,511.1,321.3,512.1,320,513.5z M346.9,561.8l16.2,18.3l-18.2,20.7
		c-10,11.4-18.6,21.1-19.1,21.7c-0.4,0.5-0.8-18.4-0.8-42v-43l2.9,3C329.4,542.2,338,551.7,346.9,561.8z"/>
	
		<linearGradient id="SVGID_00000119087465262297220300000010984326281605965447_" gradientUnits="userSpaceOnUse" x1="816.6316" y1="134.452" x2="-142.0168" y2="1868.3574">
		<stop  offset="0" style="stop-color:#CA5727"/>
		<stop  offset="1" style="stop-color:#FDE800"/>
	</linearGradient>
	<path style="fill:url(#SVGID_00000119087465262297220300000010984326281605965447_);" d="M550.1,514c-1.3,1.1-3.6,2-5.2,2H542
		l-0.2,83.2c-0.2,45.8-0.2,84.3,0,85.5c0.3,1.7,1,2.3,2.8,2.3c1.4,0,4,1.1,5.9,2.6l3.3,2.5l14.4-18.8c49.7-64.8,54.8-71.6,53.9-72.7
		c-0.5-0.6-15.8-20.7-34.1-44.6c-18.3-23.9-33.7-43.6-34.3-43.7C553,512.1,551.4,512.9,550.1,514z M580.1,571.8
		c11.7,15.2,21.6,28.2,22.1,28.9c0.6,0.7-6.3,10.5-20.8,29.5c-11.9,15.5-22.3,29-23,29.8c-1.2,1.2-1.4-7.6-1.4-57.8
		c0-37.6,0.4-59.1,1-58.7C558.5,543.8,568.5,556.5,580.1,571.8z"/>
	
		<linearGradient id="SVGID_00000008138362390362964570000001738175172406056323_" gradientUnits="userSpaceOnUse" x1="471.2867" y1="-159.717" x2="-302.968" y2="1240.676">
		<stop  offset="0" style="stop-color:#CA5727"/>
		<stop  offset="1" style="stop-color:#FDE800"/>
	</linearGradient>
	<path style="fill:url(#SVGID_00000008138362390362964570000001738175172406056323_);" d="M8.5,516.2c-3.8,1-7.1,2-7.2,2.2
		C1,518.7,45.7,691.1,46.2,691.6c0.2,0.2,5.7-20.3,12.2-45.4c6.5-25.1,12.2-46,12.5-46.4c0.4-0.5,6.1,19.9,12.6,45.2
		c6.6,25.3,12.2,46,12.5,46c0.3,0,10.4-38.4,22.4-85.3c12.1-46.8,22.1-85.7,22.3-86.3c0.5-1.3-13.8-5.6-14.8-4.5
		c-0.4,0.3-7.1,25.9-15,56.8c-7.9,31-14.6,56.3-15,56.3c-0.3,0-5.9-20.7-12.4-46c-6.6-25.3-12.2-45.6-12.6-45.2s-6,21.3-12.5,46.5
		S46.3,628.5,46,627.8c-0.4-0.7-7.1-26.3-15-56.8s-14.6-55.8-14.9-56.1C15.8,514.5,12.4,515.1,8.5,516.2z"/>
	
		<linearGradient id="SVGID_00000168834316223153957540000007760171766631563917_" gradientUnits="userSpaceOnUse" x1="701.0174" y1="-266.3609" x2="-344.9907" y2="1625.5518">
		<stop  offset="0" style="stop-color:#CA5727"/>
		<stop  offset="1" style="stop-color:#FDE800"/>
	</linearGradient>
	<path style="fill:url(#SVGID_00000168834316223153957540000007760171766631563917_);" d="M218.2,518.7c-7.4,11.7-50.2,82.5-50.2,83
		c0,0.9,51,85.5,52.5,87.2c1.1,1.1,5.8-6.2,26.4-40.8c13.8-23.1,25.6-43.1,26.2-44.5c1-2.2-1.3-6.4-25-46
		c-14.4-24-26.4-43.6-26.5-43.6C221.4,514,219.9,516.1,218.2,518.7z M239.3,573.6l16.8,28.1l-17.2,28.9c-9.4,15.9-17.2,29-17.3,29.1
		c-0.3,0.4-34.3-55.8-34.8-57.3c-0.4-1.6,34.3-58.7,35.2-57.7C222.3,545.1,230.1,558.1,239.3,573.6z"/>
	
		<linearGradient id="SVGID_00000006699447758359446660000007321821783490511799_" gradientUnits="userSpaceOnUse" x1="943.311" y1="372.2274" x2="-103.345" y2="2265.312">
		<stop  offset="0" style="stop-color:#CA5727"/>
		<stop  offset="1" style="stop-color:#FDE800"/>
	</linearGradient>
	<path style="fill:url(#SVGID_00000006699447758359446660000007321821783490511799_);" d="M790,557.2c-14.5,23.8-26.5,43.6-26.7,44
		c-0.5,0.9,52.3,88.3,53.4,88.2c0.4,0,12.6-19.8,26.9-43.9l26.2-43.7l-25.5-42.7c-14.1-23.4-26.1-43.2-26.8-43.9
		C816.6,514.2,811,522.7,790,557.2z M834.4,573.3c9.1,15.4,16.6,28.1,16.6,28.4c0,0.7-34.2,58.4-34.5,58.1
		c-1.5-1.7-34.5-57.2-34.5-58c0-1.9,34.4-57.8,35.1-57C817.5,545.2,825.2,558,834.4,573.3z"/>
	
		<linearGradient id="SVGID_00000112596798996623714020000009687326236244570497_" gradientUnits="userSpaceOnUse" x1="800.8459" y1="-7.7525" x2="-216.9091" y2="1833.0588">
		<stop  offset="0" style="stop-color:#CA5727"/>
		<stop  offset="1" style="stop-color:#FDE800"/>
	</linearGradient>
	<path style="fill:url(#SVGID_00000112596798996623714020000009687326236244570497_);" d="M422,526.5V537l6.9,5.6l6.9,5.7l-1.4,4.6
		c-1.1,3.5-1.6,13-1.9,40.1c-0.3,19.5-0.7,48.7-0.9,64.7l-0.4,29.3h37.4H506v-7.5V672h-29.1h-29l0.3-55.8l0.4-55.7l2.7-9
		c1.4-4.9,2.5-9,2.4-9c-0.1-0.1-3.7-2.9-7.9-6.4l-7.8-6.2v-7V516h-8h-8V526.5z"/>
	
		<linearGradient id="SVGID_00000018217081341317066030000003007041986014608814_" gradientUnits="userSpaceOnUse" x1="965.2156" y1="529.2483" x2="197.0681" y2="1918.5952">
		<stop  offset="0" style="stop-color:#CA5727"/>
		<stop  offset="1" style="stop-color:#FDE800"/>
	</linearGradient>
	<path style="fill:url(#SVGID_00000018217081341317066030000003007041986014608814_);" d="M914.3,525.3c5.4,5.1,18.3,17.1,28.7,26.7
		c10.3,9.6,18.9,17.9,18.9,18.4c0.1,0.5-11.3,0.7-27.9,0.3l-28-0.6v58.5V687h8h8v-50.5V586l40.1-0.2l40-0.3L973.7,559l-28.5-26.5
		l28.9-0.3l28.9-0.2v-8v-8h-49.2l-49.3,0.1L914.3,525.3z"/>
	
		<linearGradient id="SVGID_00000089571370154223202150000002775329171330000039_" gradientUnits="userSpaceOnUse" x1="868.751" y1="153.7884" x2="-39.9052" y2="1797.2729">
		<stop  offset="0" style="stop-color:#CA5727"/>
		<stop  offset="1" style="stop-color:#FDE800"/>
	</linearGradient>
	<path style="fill:url(#SVGID_00000089571370154223202150000002775329171330000039_);" d="M421.3,754c-4,3.8-4.6,4-10.3,4h-6v130
		v130h12h12v-30.3v-30.3l9.6-10.8l9.7-10.7l4.6,7.3c2.6,4,15.2,24,28,44.4l23.3,37.2l9.9-6.2c5.4-3.3,9.9-6.4,9.9-6.7
		c0-0.3-12.9-21-28.6-46c-15.7-25-29-46.2-29.5-47.1c-0.8-1.4,4.1-7.5,26.2-32.8l27.1-31l-6.9-7.8c-3.7-4.2-24.5-27.8-46.1-52.5
		c-21.7-24.6-39.7-44.7-40-44.7C425.8,750,423.6,751.8,421.3,754z M457.5,821.5c13.1,14.8,25.1,28.4,26.8,30.2l3,3.2l-27.6,31.4
		c-15.2,17.2-28.3,31.9-29.1,32.6c-1.5,1.2-1.6-4.7-1.6-64v-65.4l2.4,2.5C432.7,793.4,444.4,806.6,457.5,821.5z"/>
	
		<linearGradient id="SVGID_00000116211644777904391820000003751272636766914182_" gradientUnits="userSpaceOnUse" x1="963.8782" y1="481.2401" x2="162.6996" y2="1930.3302">
		<stop  offset="0" style="stop-color:#CA5727"/>
		<stop  offset="1" style="stop-color:#FDE800"/>
	</linearGradient>
	<path style="fill:url(#SVGID_00000116211644777904391820000003751272636766914182_);" d="M743.5,802.7l-40,52.5l-0.3-48.6L703,758
		h-12h-12v130v130h12h12l0.2-48.6l0.3-48.6l39.8,52.1c21.9,28.7,40.2,52.1,40.8,52.1c0.5,0,5-3.2,9.9-7l8.9-7.1l-22.8-29.7
		C718.3,900.6,709,888.5,709,888s9.6-13,71.1-93.2l22.8-29.7l-8.7-6.9c-4.8-3.7-9.1-7.1-9.7-7.4C784,750.5,765.5,773.9,743.5,802.7z
		"/>
	
		<linearGradient id="SVGID_00000162314145095251561160000000953188132328213161_" gradientUnits="userSpaceOnUse" x1="1116.3397" y1="613.4631" x2="244.9783" y2="2189.4929">
		<stop  offset="0" style="stop-color:#CA5727"/>
		<stop  offset="1" style="stop-color:#FDE800"/>
	</linearGradient>
	<path style="fill:url(#SVGID_00000162314145095251561160000000953188132328213161_);" d="M929.2,755
		c-1.6,4.9-72.1,256.8-72.4,258.7c-0.2,1.2,2.3,2.3,11,4.6c6.2,1.7,11.4,2.8,11.7,2.6c0.2-0.3,11.5-40.5,25.1-89.4
		c13.6-49,25-89.3,25.3-89.7c0.3-0.4,11.9,39.3,25.6,88.3c13.8,49,25.3,89.5,25.7,90.1c0.9,1.6,22.8-4.2,22.8-6.1
		c0-1-46.8-167.7-73.4-261.6C930.5,751.9,929.8,753.1,929.2,755z"/>
	
		<linearGradient id="SVGID_00000133530298705027831040000008073127077117818502_" gradientUnits="userSpaceOnUse" x1="682.9895" y1="-150.7829" x2="-187.9785" y2="1424.535">
		<stop  offset="0" style="stop-color:#CA5727"/>
		<stop  offset="1" style="stop-color:#FDE800"/>
	</linearGradient>
	<path style="fill:url(#SVGID_00000133530298705027831040000008073127077117818502_);" d="M37.1,883.3
		c-20,71.6-36.5,130.6-36.5,131.1c-0.1,0.8,18.4,6.5,21.4,6.6c1.2,0,7.2-20.1,26.5-89.5C62.2,882.3,73.7,842,74,842
		c0.3,0,11.8,39.8,25.5,88.5s25.2,89,25.6,89.7c0.9,1.4,22.9-4.1,22.9-5.7c0-1.8-73.5-261.5-74-261.5
		C73.7,753,57.1,811.6,37.1,883.3z"/>
	
		<linearGradient id="SVGID_00000013895022390265370560000016515653437820567710_" gradientUnits="userSpaceOnUse" x1="660.2161" y1="117.0927" x2="-107.3824" y2="1505.4464">
		<stop  offset="0" style="stop-color:#CA5727"/>
		<stop  offset="1" style="stop-color:#FDE800"/>
	</linearGradient>
	<path style="fill:url(#SVGID_00000013895022390265370560000016515653437820567710_);" d="M205.7,761.8
		c13.7,12.1,83.3,77.8,83.3,78.6c0,0.6-15.9,0.7-42.5,0.3l-42.5-0.6V929v89h12h12v-76.5V865l61.6-0.2l61.7-0.3L306.9,823l-44.4-41.5
		l44.8-0.3L352,781v-11.5V758h-75.2l-75.3,0.1L205.7,761.8z"/>
	
		<linearGradient id="SVGID_00000100382500392418065650000010264674660748459136_" gradientUnits="userSpaceOnUse" x1="964.8528" y1="222.6653" x2="-53.9553" y2="2065.3816">
		<stop  offset="0" style="stop-color:#CA5727"/>
		<stop  offset="1" style="stop-color:#FDE800"/>
	</linearGradient>
	<path style="fill:url(#SVGID_00000100382500392418065650000010264674660748459136_);" d="M578,774.2l0.1,16.3l7.4,6
		c4.2,3.3,8.6,6.9,10,8l2.5,2.1l-2.4,8.4l-2.4,8.5l-0.6,97.2L592,1018h12h12l0.1-21.3c0-11.6,0.4-55,0.9-96.2l0.8-75l3.6-12.5
		c2-6.9,3.6-13.2,3.6-14s-5.2-5.6-11.5-10.5l-11.4-9l-0.1-10.8V758h-12h-12V774.2z"/>
	
		<linearGradient id="SVGID_00000158742086656419196620000009847433715870280604_" gradientUnits="userSpaceOnUse" x1="584.0057" y1="25.2434" x2="-171.3841" y2="1391.5155">
		<stop  offset="0" style="stop-color:#CA5727"/>
		<stop  offset="1" style="stop-color:#FDE800"/>
	</linearGradient>
	<path style="fill:url(#SVGID_00000158742086656419196620000009847433715870280604_);" d="M49.3,947.7C53.8,955.9,73.5,988,74,988
		s20.2-32.1,24.7-40.3c0.2-0.4-10.9-0.7-24.7-0.7S49.1,947.3,49.3,947.7z"/>
	
		<linearGradient id="SVGID_00000044161158197818937760000018357316100944194706_" gradientUnits="userSpaceOnUse" x1="1074.3003" y1="686.0578" x2="313.1989" y2="2062.6602">
		<stop  offset="0" style="stop-color:#CA5727"/>
		<stop  offset="1" style="stop-color:#FDE800"/>
	</linearGradient>
	<path style="fill:url(#SVGID_00000044161158197818937760000018357316100944194706_);" d="M906.2,949.2c0.8,1.3,6.5,10.8,12.7,21.1
		l11.3,18.9l12.4-20.7c6.8-11.4,12.4-20.8,12.4-21.1c0-0.2-11.3-0.4-25.1-0.4h-25.1L906.2,949.2z"/>
</g>
</svg>
